<svg width="120" height="37" viewBox="0 0 120 37" fill="none" xmlns="http://www.w3.org/2000/svg">
<path d="M19.5737 8.2993C18.6342 8.2993 17.8512 9.08225 17.8512 10.0218V12.7882C16.3375 9.70861 13.4145 7.82953 9.86516 7.82953C7.04654 7.82953 4.69769 8.82126 2.81862 10.7525C0.939539 12.6838 0 15.1371 0 18.0601C0 20.9831 0.939539 23.3841 2.81862 25.3676C4.69769 27.2989 7.04654 28.2906 9.86516 28.2906C11.6398 28.2906 13.2057 27.873 14.6151 26.9335C16.0244 26.0461 17.0683 24.8456 17.8512 23.3319V26.0983C17.8512 27.8208 17.2249 29.1779 15.9722 30.2741C14.7194 31.318 13.1013 31.84 11.0135 31.84C8.45585 31.84 6.31579 31.0048 5.16746 29.5955C4.80209 29.1779 4.28012 28.9692 3.75816 28.9692C2.34885 28.9692 1.5137 30.4829 2.24445 31.7356C2.87081 32.7795 3.65376 33.6147 4.6455 34.3454C6.42018 35.6503 8.56024 36.2767 11.0657 36.2767C14.1453 36.2767 16.6507 35.3371 18.5298 33.5103C20.4089 31.6312 21.3484 29.2301 21.3484 26.1505V10.0218C21.2962 9.08225 20.5133 8.2993 19.5737 8.2993ZM15.8156 22.1836C14.4585 23.3319 12.7882 23.8539 10.7003 23.8539C8.61244 23.8539 6.94215 23.2797 5.63723 22.1836C4.28012 21.0875 3.60157 19.6782 3.60157 18.0601C3.60157 16.3898 4.28012 14.9805 5.63723 13.8843C6.99435 12.7882 8.66464 12.214 10.7003 12.214C12.736 12.214 14.4585 12.7882 15.8156 13.8843C17.1727 14.9805 17.8512 16.3898 17.8512 18.0601C17.799 19.7304 17.1727 21.0875 15.8156 22.1836Z" fill="#70BE54"/>
<path d="M33.3536 7.82953C30.274 7.82953 27.7163 8.82126 25.6807 10.8047C23.645 12.8404 22.6011 15.2936 22.6011 18.2689C22.6011 21.2441 23.5928 23.7495 25.6807 25.7852C27.7163 27.8208 30.274 28.8126 33.3536 28.8126C36.381 28.8126 38.9386 27.8208 41.0265 25.7852C43.0621 23.7495 44.1061 21.2963 44.1061 18.2689C44.1061 15.2936 43.1143 12.7882 41.0265 10.8047C38.9908 8.82126 36.4332 7.82953 33.3536 7.82953ZM38.4688 22.4968C37.1117 23.5929 35.4414 24.1671 33.4058 24.1671C31.3701 24.1671 29.6476 23.5929 28.3427 22.4968C26.9856 21.4006 26.307 19.9913 26.307 18.321C26.307 16.6508 26.9856 15.2414 28.3427 14.1453C29.6998 13.0492 31.3701 12.475 33.4058 12.475C35.4414 12.475 37.1639 13.0492 38.4688 14.1453C39.826 15.2414 40.5045 16.6508 40.5045 18.321C40.5045 19.9913 39.7738 21.4006 38.4688 22.4968Z" fill="#70BE54"/>
<path d="M50.631 4.48891C51.2052 4.95868 51.9881 5.21966 52.8754 5.21966C53.7628 5.21966 54.5457 4.95868 55.1199 4.48891C55.6941 4.01914 56.0072 3.39278 56.0072 2.60983C56.0072 1.87908 55.6941 1.25272 55.1199 0.730753C54.5457 0.260983 53.7628 0 52.8754 0C51.9881 0 51.2052 0.260983 50.631 0.730753C50.0046 1.20052 49.7437 1.82688 49.7437 2.60983C49.7437 3.39278 50.0568 4.01914 50.631 4.48891Z" fill="#70BE54"/>
<path d="M66.2377 4.48891C66.8118 4.95868 67.5948 5.21966 68.4821 5.21966C69.3695 5.21966 70.1524 4.95868 70.7266 4.48891C71.3008 4.01914 71.6139 3.39278 71.6139 2.60983C71.6139 1.87908 71.3008 1.25272 70.7266 0.730753C70.1524 0.260983 69.3695 0 68.4821 0C67.5948 0 66.8118 0.260983 66.2377 0.730753C65.6113 1.20052 65.3503 1.82688 65.3503 2.60983C65.2981 3.39278 65.6113 4.01914 66.2377 4.48891Z" fill="#70BE54"/>
<path d="M88.8388 7.82948C87.0641 7.82948 85.4982 8.29925 84.0889 9.18659C82.6796 10.1261 81.6356 11.3267 80.8527 12.9447V1.77467C80.8527 0.835134 80.0697 0.0521851 79.1302 0.0521851C78.1907 0.0521851 77.4077 0.835134 77.4077 1.77467V26.5681C77.4077 27.5076 78.1907 28.2906 79.1302 28.2906C80.0697 28.2906 80.8527 27.5076 80.8527 26.5681V23.6972C82.3664 26.829 85.2894 28.8125 88.8388 28.8125C91.6574 28.8125 93.954 27.8208 95.8853 25.7851C97.7644 23.7494 98.7039 21.2962 98.7039 18.2688C98.7039 15.2936 97.7644 12.7882 95.8853 10.8047C93.954 8.82122 91.6052 7.82948 88.8388 7.82948ZM93.0667 22.4967C91.7096 23.5929 90.0393 24.167 87.9514 24.167C85.9158 24.167 84.1933 23.5929 82.8884 22.4967C81.5312 21.4006 80.8527 19.9913 80.8527 18.321C80.8527 16.6507 81.5312 15.2414 82.8884 14.1453C84.2455 13.0491 85.9158 12.475 87.9514 12.475C89.9871 12.475 91.7096 13.0491 93.0667 14.1453C94.4238 15.2414 95.1024 16.6507 95.1024 18.321C95.1024 19.9913 94.3716 21.4006 93.0667 22.4967Z" fill="#70BE54"/>
<path d="M62.4272 21.4006C62.6882 21.2441 63.0013 21.0875 63.3667 20.9831C64.4106 20.6177 66.0287 20.3045 68.221 20.0435C70.5698 19.7304 72.4489 19.104 73.8582 18.1123C75.2675 17.1205 75.9983 15.7634 75.9983 13.9887C75.9983 12.1097 75.1631 10.5959 73.545 9.49982C71.927 8.40369 69.8391 7.82953 67.3859 7.82953C64.8804 7.82953 62.7925 8.45589 61.1223 9.70861C60.8613 9.91739 60.6525 10.1262 60.3915 10.335C60.1827 10.1262 59.9217 9.91739 59.7129 9.70861C58.0427 8.45589 55.9548 7.82953 53.4494 7.82953C50.9961 7.82953 48.9082 8.40369 47.2902 9.49982C45.6721 10.5959 44.8369 12.1097 44.8369 13.9887C44.8369 15.7112 45.5677 17.0683 46.977 18.1123C48.3863 19.104 50.2654 19.7826 52.6142 20.0435C54.8065 20.3567 56.4246 20.6177 57.4685 20.9831C57.8339 21.0875 58.147 21.2441 58.408 21.4006C58.8256 21.6616 59.0344 22.027 59.0344 22.3924C59.0344 22.7578 58.8256 23.1231 58.408 23.4363C58.1992 23.5929 57.8861 23.7495 57.5207 23.8539C56.4768 24.2715 55.1718 24.4281 53.5537 24.4281C51.9357 24.4281 50.5785 24.1671 49.5346 23.6973C48.9082 23.4363 48.4907 23.0709 48.2297 22.7056C47.9165 22.1836 47.3424 21.8704 46.716 21.8704C45.4111 21.8704 44.5237 23.2275 45.0979 24.4281C45.5155 25.3154 46.194 26.0983 47.0814 26.8291C48.8039 28.1862 50.9439 28.8648 53.5016 28.8648C56.1114 28.8648 58.2514 28.2906 59.9739 27.1423C60.1305 27.0379 60.2871 26.9335 60.3915 26.8291C60.5481 26.9335 60.6525 27.0379 60.8091 27.1423C62.5316 28.2906 64.6716 28.8648 67.2815 28.8648C69.8913 28.8648 72.0313 28.1862 73.7016 26.8291C74.589 26.0983 75.2675 25.3154 75.6851 24.4281C76.2593 23.2275 75.3719 21.8704 74.067 21.8704C73.4407 21.8704 72.8665 22.1836 72.5533 22.7056C72.2923 23.0709 71.8748 23.4363 71.2484 23.6973C70.2045 24.1671 68.8474 24.4281 67.2293 24.4281C65.6112 24.4281 64.2541 24.2193 63.2623 23.8539C62.8969 23.6973 62.636 23.5929 62.375 23.4363C61.9574 23.1231 61.7486 22.81 61.7486 22.3924C61.8008 21.9748 62.0096 21.6616 62.4272 21.4006ZM60.3915 18.321C59.0866 17.3815 57.1553 16.7551 54.5977 16.3898C50.2654 15.8156 48.3341 15.1893 48.3341 14.0931C48.3341 13.519 48.8039 13.0492 49.7956 12.6838C50.7351 12.3184 51.9878 12.1618 53.4494 12.1618C54.4933 12.1618 55.3806 12.2662 56.1636 12.475C57.2597 12.736 58.0949 13.0492 58.7734 13.3624C59.9217 13.9365 60.3915 14.4585 60.3915 14.4585C60.3915 14.4585 60.8613 13.9365 62.0096 13.3624C62.636 13.0492 63.5233 12.736 64.6194 12.475C64.6194 12.475 64.6194 12.475 64.6716 12.475C65.4546 12.2662 66.3419 12.1618 67.3859 12.1618C68.8996 12.1618 70.1001 12.3184 71.0396 12.6838C71.9792 13.0492 72.5011 13.519 72.5011 14.0931C72.5011 15.1893 70.5698 15.8156 66.2375 16.3898C63.6799 16.7551 61.7486 17.3815 60.3915 18.321Z" fill="#70BE54"/>
<path d="M118.33 7.98593C117.338 7.93373 116.503 8.71668 116.503 9.70841V17.5379V18.5296C116.503 18.5818 116.503 18.634 116.503 18.7384C116.503 18.895 116.451 18.9994 116.451 19.1038V19.156C116.399 19.3126 116.399 19.4692 116.346 19.6258C116.294 19.7824 116.242 19.9389 116.19 20.0433V20.0955C116.138 20.1999 116.085 20.3043 116.033 20.4087C115.981 20.4609 115.981 20.5653 115.929 20.6175C115.616 21.1917 115.146 21.7136 114.572 22.1834C114.363 22.34 114.206 22.4966 113.998 22.601C113.945 22.601 113.945 22.6532 113.893 22.6532C113.476 22.9142 113.058 23.1229 112.64 23.2795C111.336 23.6971 109.926 23.5927 109.352 23.4883C107.995 23.2795 106.794 22.7576 105.803 21.9224C104.446 20.7741 103.767 19.417 103.767 17.7467V9.81281C103.767 9.55182 103.715 9.34304 103.61 9.13425C103.506 8.92546 103.402 8.71668 103.193 8.56009C102.88 8.24691 102.41 8.03812 101.888 8.03812C100.896 8.03812 100.061 8.87327 100.061 9.865V17.7989C100.061 20.7219 101.001 23.1751 102.88 25.1586C103.141 25.4196 103.402 25.6806 103.663 25.8894C104.237 26.4113 104.915 26.8289 105.594 27.1421C109.352 28.708 112.014 27.664 113.058 27.0899C113.11 27.0377 113.215 26.9855 113.267 26.9333C113.371 26.8811 113.476 26.7767 113.58 26.7245C114.833 25.8894 115.824 24.741 116.503 23.3317V26.0982C116.503 27.8206 115.877 29.1778 114.624 30.2739C113.371 31.3178 111.753 31.8398 109.665 31.8398C107.108 31.8398 104.968 31.0046 103.819 29.5953C103.454 29.1777 102.932 28.969 102.41 28.969C101.001 28.969 100.165 30.4827 100.896 31.6832C101.105 32.0486 101.314 32.3617 101.575 32.6749C102.045 33.2491 102.566 33.7189 103.193 34.1886C104.968 35.4935 107.108 36.1199 109.665 36.1199C112.432 36.1199 114.728 35.3891 116.503 33.9276C116.712 33.7189 116.921 33.5623 117.182 33.3535C119.061 31.4744 120 29.0212 120 25.9416V9.81281C119.948 8.87327 119.269 8.03812 118.33 7.98593Z" fill="#70BE54"/>
</svg>
